<svg xmlns="http://www.w3.org/2000/svg" viewBox="0 0 180 180" fill="none">
  <style>
    .mark { fill: #000; }
    @media (prefers-color-scheme: dark) {
      .mark { fill: #fff; }
    }
  </style>
  <g transform="translate(15 45)">
    <path class="mark" d="M13.7481 48.1182H30.2923C36.1178 48.1182 40.8015 49.3649 44.3317 51.8465C47.8619 54.3281 49.6678 58.604 49.7493 64.6625C49.8309 70.721 48.0367 75.0551 44.3899 77.6532C40.7432 80.2514 36.0013 81.5563 30.1758 81.5563H13.7481V48.1182ZM13.7481 8.73817H24.1174C27.8456 8.73817 31.2594 9.16926 34.3702 10.0198C37.4809 10.8703 39.9859 12.3849 41.885 14.5636C43.7841 16.7423 44.7395 19.8415 44.7395 23.8843C44.7395 27.9272 43.9239 31.0147 42.2928 33.1468C40.6616 35.2789 38.3897 36.7586 35.477 37.5742C32.5643 38.3897 29.1622 38.7975 25.2824 38.7975H13.7481V8.73817ZM0 0C1.01363 4.19432 1.60782 8.4702 1.80589 12.816C2.00395 17.1618 2.09716 21.5192 2.09716 25.865V64.4295C2.09716 68.7753 2.00395 73.1327 1.80589 77.4785C1.60782 81.8243 1.01363 86.1001 0 90.2945H33.6711C37.1664 90.2945 40.6267 89.7469 44.0404 88.6634C47.4541 87.5798 50.5416 85.9487 53.3029 83.77C56.0641 81.5913 58.2545 78.9115 59.8856 75.7308C61.5168 72.5502 62.3323 68.8568 62.3323 64.6625C62.3323 59.2215 60.9925 54.6194 58.3128 50.8562C55.633 47.0929 52.231 44.2385 48.1182 42.2928C50.8329 40.3471 53.0465 37.8654 54.7592 34.8362C56.4719 31.807 57.3224 28.1602 57.3224 23.8843C57.3224 19.6085 56.4253 16.1015 54.6427 13.1073C52.8601 10.113 50.4834 7.65464 47.5357 5.70894C44.588 3.76324 41.384 2.33018 37.9237 1.39811C34.4634 0.466037 31.0263 0 27.6126 0H0Z"/>
    <path class="mark" transform="translate(-232 0)" d="M306.301 0C307.314 4.19432 307.909 8.4702 308.107 12.816C308.305 17.1618 308.398 21.5192 308.398 25.865V64.4295C308.398 68.7753 308.305 73.1327 308.107 77.4785C307.909 81.8243 307.314 86.1001 306.301 90.2945H322.146C321.132 86.1001 320.538 81.8243 320.34 77.4785C320.142 73.1327 320.049 68.7753 320.049 64.4295V41.5937L354.069 78.7601C356.551 81.5563 358.532 84.0263 360.011 86.1584C361.491 88.2905 362.342 89.677 362.575 90.2945H381.333C377.989 87.4167 374.925 84.702 372.128 82.1388C369.332 79.5756 366.652 76.9775 364.089 74.3327L333.913 41.3607L357.215 15.8452C359.778 13.2005 362.423 10.6256 365.138 8.09738C367.852 5.56913 370.882 2.87777 374.226 0H355.468C355.235 0.617498 354.268 2.12046 352.555 4.48559C350.842 6.85073 348.594 9.67024 345.797 12.9325L320.049 41.2442V25.865C320.049 21.5192 320.142 17.1618 320.34 12.816C320.538 8.4702 321.132 4.19432 322.146 0H306.301Z"/>
  </g>
</svg>
